<svg display="none" xmlns="http://www.w3.org/2000/svg">
<symbol id="pet-food" viewBox="0 0 512.002 512.002">
<g>
<g>
	<g>
		<path d="M425.978,177.553c-0.006-0.126-0.009-0.252-0.019-0.378c-0.028-0.346-0.073-0.688-0.136-1.023
			c-0.006-0.035-0.009-0.07-0.016-0.105c-0.078-0.395-0.182-0.779-0.305-1.155c-0.02-0.062-0.045-0.121-0.066-0.182
			c-0.109-0.314-0.234-0.621-0.374-0.919c-0.021-0.044-0.033-0.091-0.055-0.135L374.186,68.311V30c0-16.542-13.458-30-30-30H166.358
			c-16.542,0-30,13.458-30,30v38.369L86.947,173.755c-0.017,0.037-0.027,0.075-0.044,0.112c-0.15,0.329-0.285,0.666-0.398,1.013
			c-0.008,0.025-0.019,0.049-0.027,0.074c-0.12,0.374-0.216,0.756-0.291,1.147c-0.016,0.083-0.024,0.167-0.038,0.251
			c-0.048,0.288-0.086,0.579-0.108,0.876c-0.01,0.134-0.016,0.268-0.021,0.402c-0.004,0.124-0.019,0.245-0.019,0.371V482.25
			c0,16.405,13.347,29.752,29.753,29.752h280.494c16.406,0,29.753-13.347,29.753-29.752V178
			C426.001,177.849,425.985,177.702,425.978,177.553z M156.358,30c0-5.514,4.486-10,10-10h177.828c5.514,0,10,4.486,10,10v30.597
			H156.358V30z M134.157,120.176h59.596c5.523,0,10-4.477,10-10c0-5.523-4.477-10-10-10h-50.219l9.18-19.58h205.194L400.074,168
			h-288.34L134.157,120.176z M406.001,452.176h-55.953c-5.523,0-10,4.477-10,10s4.477,10,10,10h55.953v10.073
			c0,5.377-4.375,9.752-9.753,9.752H115.754c-5.378,0-9.753-4.375-9.753-9.752V188h300V452.176z"/>
	</g>
</g>
<g>
	<g>
		<path d="M256.001,303.344c-39.536,0-71.7,32.278-71.7,71.952c0,39.674,32.165,71.952,71.7,71.952
			c39.536,0,71.701-32.277,71.701-71.952S295.537,303.344,256.001,303.344z M256.001,427.248c-28.508,0-51.7-23.305-51.7-51.952
			c0-28.646,23.192-51.952,51.7-51.952s51.701,23.306,51.701,51.952C307.702,403.943,284.509,427.248,256.001,427.248z"/>
	</g>
</g>
<g>
	<g>
		<path d="M256.001,215.826c-19.523,0-35.406,16.838-35.406,37.534c0,20.697,15.883,37.535,35.406,37.535
			s35.406-16.838,35.406-37.535C291.407,232.664,275.524,215.826,256.001,215.826z M256.001,270.895
			c-8.495,0-15.406-7.866-15.406-17.535s6.911-17.534,15.406-17.534c8.495,0,15.406,7.866,15.406,17.534
			C271.407,263.029,264.496,270.895,256.001,270.895z"/>
	</g>
</g>
<g>
	<g>
		<path d="M330.575,250.244c-19.523,0-35.406,16.838-35.406,37.534c0,20.697,15.883,37.535,35.406,37.535
			s35.406-16.838,35.406-37.535C365.981,267.082,350.098,250.244,330.575,250.244z M330.575,305.313
			c-8.495,0-15.406-7.866-15.406-17.535c0-9.668,6.911-17.534,15.406-17.534s15.406,7.866,15.406,17.534
			C345.981,297.447,339.07,305.313,330.575,305.313z"/>
	</g>
</g>
<g>
	<g>
		<path d="M181.427,250.244c-19.523,0-35.406,16.838-35.406,37.534c0,20.697,15.883,37.535,35.406,37.535
			c19.522,0,35.406-16.838,35.406-37.535C216.833,267.082,200.95,250.244,181.427,250.244z M181.427,305.313
			c-8.495,0-15.406-7.866-15.406-17.535c0-9.668,6.911-17.534,15.406-17.534s15.406,7.866,15.406,17.534
			C196.833,297.447,189.922,305.313,181.427,305.313z"/>
	</g>
</g>
<g>
	<g>
		<path d="M223.801,100.176h-0.324c-5.523,0-10,4.477-10,10c0,5.523,4.477,10,10,10h0.324c5.523,0,10-4.477,10-10
			C233.801,104.653,229.324,100.176,223.801,100.176z"/>
	</g>
</g>
<g>
	<g>
		<path d="M320.325,452.176h-0.324c-5.523,0-10,4.477-10,10s4.477,10,10,10h0.324c5.523,0,10-4.477,10-10
			C330.325,456.653,325.848,452.176,320.325,452.176z"/>
	</g>
</g>
</g>
</symbol>

<symbol id="bowl" viewBox="0 0 489.108 489.108">
<g>
	<path d="M488.895,349.458l-35.6-155.711c-0.074-0.322-0.169-0.634-0.276-0.938c-2.71-9.849-15.761-17.291-41.196-23.553
		c-4.838-25.417-27.213-44.697-54.018-44.697c-1.71,0-3.424,0.082-5.136,0.243c-9.346-18.041-28.186-29.743-48.864-29.743
		c-6.311,0-12.58,1.093-18.488,3.197c-8.821-13.709-24.037-22.197-40.762-22.197s-31.94,8.487-40.762,22.197
		c-5.908-2.104-12.177-3.197-18.488-3.197c-20.678,0-39.518,11.703-48.864,29.743c-1.712-0.162-3.426-0.243-5.136-0.243
		c-26.805,0-49.18,19.28-54.018,44.697c-26.029,6.409-39.096,14.05-41.376,24.245c-0.034,0.124-0.076,0.244-0.104,0.371
		L0.214,349.457C0.072,350.078,0,350.714,0,351.352c0,16.291,25.438,30.818,75.605,43.178
		c48.476,11.943,108.477,18.52,168.949,18.52c60.473,0,120.473-6.577,168.949-18.52c50.168-12.36,75.605-26.887,75.605-43.177
		C489.108,350.715,489.037,350.08,488.895,349.458z M412.294,186.939c16.179,4.391,21.832,8.251,23.652,9.917
		c-2.092,1.92-9.26,6.749-31.548,11.909C408.525,202.183,411.238,194.755,412.294,186.939z M131.304,141.558
		c2.799,0,5.626,0.318,8.403,0.944c4.178,0.944,8.403-1.369,9.862-5.395c5.432-14.983,19.792-25.05,35.735-25.05
		c6.366,0,12.664,1.605,18.211,4.642c2.117,1.158,4.626,1.363,6.903,0.562c2.276-0.801,4.105-2.532,5.03-4.761
		c4.9-11.812,16.325-19.443,29.107-19.443s24.206,7.632,29.106,19.443c0.925,2.229,2.754,3.96,5.03,4.761
		c2.277,0.801,4.787,0.596,6.903-0.562c5.547-3.037,11.845-4.642,18.211-4.642c15.943,0,30.303,10.067,35.735,25.05
		c1.459,4.025,5.685,6.341,9.862,5.395c2.777-0.626,5.604-0.944,8.403-0.944c20.953,0,37.431,17.055,38,38
		c0.394,14.497-9.948,27.233-20.027,34.521c-36.225,5.436-82.663,8.422-131.223,8.422c-47.355,0-92.688-2.841-128.503-8.023
		c-13.38-6.24-22.747-20.152-22.747-34.92C93.304,158.605,110.351,141.558,131.304,141.558z M76.811,186.94
		c1.064,7.84,3.802,15.268,7.916,21.829c-22.3-5.161-29.472-9.992-31.564-11.913C54.982,195.19,60.634,191.331,76.811,186.94z
		 M405.664,378.936c-46.549,11.037-103.766,17.115-161.109,17.115c-57.343,0-114.56-6.078-161.11-17.115
		c-45.854-10.872-64.007-22.733-66.28-27.342L48.577,214.28c3.222,1.808,6.261,3.032,8.048,3.751
		c10.661,4.292,25.707,8.11,44.719,11.348c38.329,6.527,89.188,10.122,143.211,10.122s104.882-3.595,143.21-10.122
		c19.012-3.238,34.058-7.056,44.719-11.348c1.79-0.721,4.836-1.947,8.065-3.76l31.396,137.322
		C469.673,356.201,451.52,368.063,405.664,378.936z"/>
	<path d="M347.956,246.28c-19.751,0-36.191,14.451-39.304,33.333H180.456c-3.112-18.883-19.553-33.333-39.304-33.333
		c-21.964,0-39.833,17.869-39.833,39.833c0,8.761,2.863,17.151,8.042,24c-5.179,6.849-8.042,15.239-8.042,24
		c0,21.964,17.869,39.833,39.833,39.833c19.751,0,36.191-14.451,39.304-33.333h128.196c3.112,18.883,19.553,33.333,39.304,33.333
		c21.964,0,39.833-17.869,39.833-39.833c0-8.761-2.863-17.151-8.042-24c5.179-6.849,8.042-15.239,8.042-24
		C387.789,264.149,369.92,246.28,347.956,246.28z M362.626,316.623c5.188,4.356,8.163,10.731,8.163,17.491
		c0,12.59-10.243,22.833-22.833,22.833c-12.591,0-22.834-10.243-22.834-22.833c0-0.491,0.02-0.978,0.051-1.461
		c0.149-2.343-0.678-4.644-2.285-6.355c-1.607-1.712-3.85-2.683-6.198-2.683H172.418c-2.348,0-4.591,0.971-6.198,2.683
		c-1.607,1.712-2.434,4.012-2.285,6.355c0.031,0.483,0.051,0.97,0.051,1.461c0,12.59-10.243,22.833-22.834,22.833
		c-12.59,0-22.833-10.243-22.833-22.833c0-6.759,2.975-13.134,8.163-17.491c1.923-1.615,3.034-3.998,3.034-6.509
		c0-2.511-1.11-4.894-3.034-6.509c-5.188-4.356-8.163-10.731-8.163-17.491c0-12.59,10.243-22.833,22.833-22.833
		c12.591,0,22.834,10.243,22.834,22.833c0,0.491-0.02,0.978-0.051,1.461c-0.149,2.343,0.678,4.644,2.285,6.355
		c1.606,1.712,3.85,2.683,6.198,2.683H316.69c2.348,0,4.591-0.971,6.198-2.683c1.607-1.712,2.434-4.012,2.285-6.355
		c-0.031-0.483-0.051-0.97-0.051-1.461c0-12.59,10.243-22.833,22.834-22.833c12.59,0,22.833,10.243,22.833,22.833
		c0,6.759-2.975,13.134-8.163,17.491c-1.923,1.615-3.034,3.998-3.034,6.509C359.593,312.625,360.703,315.008,362.626,316.623z"/>
</g>
</symbol>

<symbol id="collar" viewBox="0 0 512.003 512.003">
<g>
	<g>
		<path d="M432.412,64.615c-47.245-12.002-109.896-18.613-176.411-18.613S126.835,52.612,79.59,64.615
			C26.778,78.032,0,96.16,0,118.5v58.043c0,0.022,0,0.043,0,0.065v48.021c0,22.338,26.778,40.467,79.59,53.885
			c44.872,11.399,103.644,17.931,166.422,18.559l-0.006,9.575c-36.13,4.526-64.829,33.225-69.357,69.354h-1.859
			c-5.522,0-10,4.477-10,10s4.478,10,10,10h1.859c4.939,39.406,38.629,70,79.353,70c40.761,0,74.476-30.649,79.367-70.108h1.845
			c5.523,0,10-4.477,10-10s-4.477-10-10-10h-1.872c-4.571-36.075-33.245-64.718-69.335-69.245l0.006-9.579
			c10.065-0.103,20.074-0.357,29.971-0.766c0.006,0,0.012,0.001,0.018,0.001c0.045,0,0.089-0.006,0.134-0.007
			c22.791-0.945,44.968-2.695,65.858-5.193c0.295-0.022,0.591-0.056,0.888-0.104c0.012-0.002,0.023-0.005,0.036-0.007
			c6.068-0.733,12.04-1.523,17.87-2.383c49.005-7.228,131.215-25.15,131.215-63.982v-106.13
			C512.002,96.16,485.224,78.032,432.412,64.615z M84.515,84c45.682-11.606,106.583-17.997,171.486-17.997
			S381.806,72.394,427.487,84c50.927,12.938,64.515,27.774,64.515,34.5c0,7.622-14.196,18.719-44.663,28.742
			c-48.021-18.282-117.442-28.736-191.338-28.736c-73.926,0-143.374,10.463-191.396,28.758C30.174,135.957,20,124.184,20,118.5
			C20,111.772,33.588,96.937,84.515,84z M206,275.826c-45.776-2.413-87.777-8.133-121.486-16.697
			C33.588,246.191,20,231.355,20,224.629v-32.017c18.782,8.722,39.739,16.285,62.536,22.545c0.886,0.243,1.776,0.359,2.653,0.359
			c4.392,0,8.418-2.915,9.637-7.355c1.463-5.326-1.669-10.828-6.995-12.291C62.596,188.941,39.815,180.382,20,170.4v-21.756
			c11.157,7.576,25.954,13.722,41.669,18.667c0.145,0.05,0.291,0.095,0.438,0.138c11.331,3.545,23.126,6.47,34.37,8.852
			c33.327,7.061,69.487,11.516,109.523,13.495V275.826z M256.006,396.001c-0.002,0-0.003-0.001-0.005-0.001
			s-0.003,0.001-0.005,0.001c-5.512-0.003-9.995-4.487-9.995-10c0-5.514,4.486-10,10-10c5.514,0,10,4.486,10,10
			C266.001,391.514,261.518,395.999,256.006,396.001z M315.133,375.894h-8.525c-5.523,0-10,4.477-10,10s4.477,10,10,10h8.564
			c-4.189,25.135-24.05,45.025-49.171,49.259v-30.871c11.639-4.128,20-15.244,20-28.28c0-16.542-13.458-30-30-30s-30,13.458-30,30
			c0,13.036,8.361,24.152,20,28.28v30.871c-25.084-4.228-44.923-24.066-49.15-49.15h8.544c5.522,0,10-4.477,10-10s-4.478-10-10-10
			h-8.544c4.775-28.336,29.469-49.995,59.14-50c0.002,0,0.004,0,0.005,0c0.002,0,0.004,0,0.006,0c0.002,0,0.004,0,0.007,0
			C285.644,326.004,310.313,347.61,315.133,375.894z M286.001,276.651c-6.621,0.208-13.285,0.348-19.978,0.418l0.017-29.475
			c0.003-5.523-4.472-10.003-9.994-10.006c-0.002,0-0.004,0-0.006,0c-5.52,0-9.997,4.474-10,9.994l-0.017,29.491
			c-6.728-0.068-13.408-0.202-20.022-0.407v-86.094c9.774,0.275,19.756,0.424,30,0.424c10.188,0,20.18-0.155,30-0.441V276.651z
			 M256,170.996c-59.266,0-110.09-4.664-155.379-14.259c-0.056-0.012-0.109-0.024-0.164-0.036
			c43.039-11.689,97.748-18.197,155.543-18.197c57.789,0,112.493,6.506,155.53,18.193c-17.067,3.627-35.26,6.567-54.491,8.818
			c-0.795-0.003-1.568,0.086-2.313,0.26C324.285,169.237,291.285,170.996,256,170.996z M359.913,271.212
			c-17.19,2.063-35.291,3.605-53.911,4.595v-86.044c17.933-0.902,35.188-2.303,51.72-4.201
			c23.994,1.393,33.764,20.159,34.877,37.466C393.946,243.98,383.145,267.194,359.913,271.212z M492.002,224.629L492.002,224.629
			c0,9.872-24.493,27.675-90.05,40.148c7.825-12.385,11.595-27.646,10.605-43.033c-0.974-15.144-6.957-30.537-18.286-41.389
			c7.597-1.308,15.031-2.72,22.252-4.266c10.903-2.335,22.331-5.186,33.338-8.629c0.104-0.03,0.205-0.065,0.307-0.098
			c15.754-4.948,30.626-11.113,41.834-18.724V224.629z"/>
	</g>
</g>
<g>
	<g>
		<path d="M115.853,202.631l-0.241-0.051c-5.409-1.114-10.666,2.374-11.78,7.784c-1.114,5.409,2.397,10.702,7.806,11.817
			c0.711,0.153,1.419,0.227,2.117,0.227c4.608,0,8.754-3.205,9.766-7.893C124.684,209.116,121.251,203.795,115.853,202.631z"/>
	</g>
</g>
</symbol>

<symbol id="envelope" viewBox="0 0 60 60">
<g><path d="M0,8.5v2.291v38.418V51.5h60v-2.291V10.791V8.5H0z M36.625,30.564l-5.446,5.472c-0.662,0.615-1.698,0.614-2.332,0.026
	l-5.473-5.498l0.048-0.047L3.647,10.5h52.719L36.577,30.518L36.625,30.564z M20.524,30.533L2,48.355V11.923L20.524,30.533z
	 M21.934,31.95l5.523,5.549c0.709,0.661,1.619,0.993,2.533,0.993c0.923,0,1.85-0.339,2.581-1.02l5.496-5.522L56.304,49.5H3.686
	L21.934,31.95z M39.477,30.534L58,11.922v36.433L39.477,30.534z"/>

</g>
</symbol>

<symbol id="medicine" viewBox="0 0 511.999 511.999" >
<g>
	<g>
		<path d="M509.07,2.932c-3.905-3.905-10.237-3.905-14.142,0L427.89,69.971c-4.063-1.959-8.554-2.997-13.21-2.997
			c-8.129,0-15.756,3.151-21.477,8.871l-21.74,21.741l-8.191-8.191c-10.403-10.402-24.282-16.131-39.08-16.131
			c-14.8,0-28.668,5.732-39.049,16.14L148.482,226.406l-17.59-17.59c-5.973-5.973-13.937-9.263-22.425-9.263
			c-8.489,0-16.453,3.29-22.426,9.263c-12.365,12.366-12.365,32.486,0.001,44.851l61.069,61.069L74.63,387.218l-27.143-27.143
			c-5.242-5.241-12.23-8.128-19.676-8.128s-14.434,2.887-19.677,8.129c-10.847,10.849-10.847,28.502,0,39.351l104.44,104.439
			c5.242,5.242,12.23,8.128,19.676,8.128c7.446,0,14.434-2.887,19.676-8.129c10.849-10.849,10.849-28.502,0-39.351l-27.143-27.143
			l72.482-72.482l61.07,61.07c5.973,5.973,13.937,9.263,22.425,9.263s16.453-3.29,22.426-9.263s9.263-13.938,9.263-22.426
			c0-8.489-3.29-16.453-9.263-22.426l-17.59-17.59l137.002-136.661c0.004-0.003,0.007-0.006,0.01-0.009
			c0.009-0.009,0.016-0.018,0.025-0.027c10.376-10.369,16.097-24.21,16.106-38.978c0.009-14.812-5.72-28.703-16.132-39.114
			l-8.191-8.191l21.742-21.741c9.365-9.365,11.316-23.372,5.869-34.68l67.043-67.044C512.975,13.169,512.975,6.837,509.07,2.932z
			 M137.784,478.657c3.051,3.052,3.051,8.017-0.001,11.069c-1.463,1.464-3.428,2.27-5.532,2.27c-2.105,0-4.07-0.807-5.534-2.271
			L22.278,385.286c-3.051-3.052-3.051-8.018-0.001-11.068c1.464-1.465,3.43-2.271,5.535-2.271s4.07,0.806,5.534,2.271
			L137.784,478.657z M110.644,423.231l-21.873-21.872l72.482-72.482l21.873,21.872L110.644,423.231z M418.74,187.831
			c-0.004,5.978-1.471,11.708-4.224,16.786l-15.227-15.226c-3.905-3.905-10.237-3.905-14.142,0c-3.905,3.905-3.905,10.237,0,14.142
			l16.238,16.237l-14.659,14.623l-39.535-39.536c-3.905-3.905-10.237-3.905-14.142,0c-3.905,3.905-3.905,10.237,0,14.142
			l39.518,39.519l-14.659,14.622l-16.183-16.183c-3.905-3.905-10.236-3.905-14.142,0c-3.905,3.905-3.905,10.237,0,14.142
			l16.165,16.165l-14.659,14.622l-39.466-39.465c-3.905-3.904-10.237-3.905-14.142,0c-3.905,3.905-3.905,10.237,0.001,14.142
			l39.448,39.447l-14.66,14.623L284.16,304.52c-3.905-3.905-10.236-3.905-14.142,0c-3.905,3.905-3.905,10.237,0,14.142
			l16.095,16.095l-14.659,14.623l-39.393-39.393c-3.905-3.905-10.236-3.905-14.142,0c-3.905,3.905-3.905,10.237,0,14.142
			l46.436,46.435c0.006,0.006,0.012,0.014,0.019,0.021l24.67,24.669c2.195,2.196,3.404,5.138,3.404,8.284
			c0.001,3.147-1.208,6.088-3.404,8.284c-2.196,2.196-5.138,3.405-8.284,3.405c-3.146,0-6.087-1.209-8.283-3.405L100.184,239.526
			c-4.567-4.568-4.567-12,0-16.569c2.195-2.195,5.137-3.404,8.283-3.404s6.088,1.209,8.284,3.404l24.669,24.67
			c1.875,1.875,4.419,2.929,7.071,2.929c0.002,0,0.004,0,0.006,0c2.654-0.002,5.199-1.059,7.073-2.938l143.734-144.09
			c6.603-6.619,15.443-10.265,24.891-10.265c9.457,0,18.314,3.648,24.939,10.273l59.334,59.336
			C415.097,169.503,418.746,178.367,418.74,187.831z M422.016,104.657l-21.742,21.74l-14.668-14.668l21.741-21.741
			c1.943-1.943,4.547-3.013,7.334-3.013c2.787,0,5.392,1.07,7.335,3.013C426.059,94.032,426.059,100.613,422.016,104.657z"/>
	</g>
</g>
<g>
	<g>
		<path d="M326.159,173.824l-0.23-0.229c-3.913-3.897-10.245-3.883-14.142,0.03c-3.897,3.914-3.883,10.245,0.03,14.142l0.23,0.229
			c1.952,1.943,4.504,2.914,7.056,2.914c2.566,0,5.132-0.982,7.086-2.944C330.086,184.051,330.072,177.721,326.159,173.824z"/>
	</g>
</g>
<g>
	<g>
		<path d="M268.609,231.403l-0.229-0.229c-3.905-3.905-10.236-3.905-14.142,0c-3.905,3.905-3.905,10.237,0,14.142l0.229,0.229
			c1.953,1.953,4.512,2.929,7.071,2.929s5.118-0.976,7.071-2.929C272.514,241.64,272.514,235.308,268.609,231.403z"/>
	</g>
</g>
<g>
	<g>
		<path d="M211.055,288.976l-0.23-0.23c-3.901-3.909-10.233-3.917-14.142-0.015c-3.909,3.901-3.916,10.233-0.015,14.142l0.229,0.229
			c1.954,1.958,4.516,2.937,7.079,2.937c2.556,0,5.112-0.974,7.064-2.921C214.949,299.217,214.956,292.885,211.055,288.976z"/>
	</g>
</g>
</symbol>

<symbol id="pin" viewBox="0 0 368.16 368.16" >
<g>
			<path d="M184.08,0c-74.992,0-136,61.008-136,136c0,24.688,11.072,51.24,11.536,52.36c3.576,8.488,10.632,21.672,15.72,29.4
				l93.248,141.288c3.816,5.792,9.464,9.112,15.496,9.112s11.68-3.32,15.496-9.104l93.256-141.296
				c5.096-7.728,12.144-20.912,15.72-29.4c0.464-1.112,11.528-27.664,11.528-52.36C320.08,61.008,259.072,0,184.08,0z
				 M293.8,182.152c-3.192,7.608-9.76,19.872-14.328,26.8l-93.256,141.296c-1.84,2.792-2.424,2.792-4.264,0L88.696,208.952
				c-4.568-6.928-11.136-19.2-14.328-26.808C74.232,181.816,64.08,157.376,64.08,136c0-66.168,53.832-120,120-120
				c66.168,0,120,53.832,120,120C304.08,157.408,293.904,181.912,293.8,182.152z"/>
			<path d="M184.08,64.008c-39.704,0-72,32.304-72,72c0,39.696,32.296,72,72,72c39.704,0,72-32.304,72-72
				C256.08,96.312,223.784,64.008,184.08,64.008z M184.08,192.008c-30.872,0-56-25.12-56-56s25.128-56,56-56s56,25.12,56,56
				S214.952,192.008,184.08,192.008z"/>
		</g>
</symbol>

<symbol id="transportation" viewBox="0 0 512 512">
<g>
	<g>
		<path d="M135.765,220.431h-39.31c-2.466,0-4.775,1.209-6.178,3.236l-49.945,72.141c-1.591,2.298-1.775,5.289-0.479,7.765
			c1.298,2.477,3.862,4.028,6.657,4.028h89.254c4.151,0,7.515-3.364,7.515-7.515v-72.141
			C143.28,223.794,139.916,220.431,135.765,220.431z M128.25,292.571H60.853l39.539-57.111h27.858V292.571z"/>
	</g>
</g>
<g>
	<g>
		<path d="M87.671,388.759c-12.983,0-23.546,10.563-23.546,23.546c0,12.983,10.563,23.546,23.546,23.546
			c12.983,0,23.546-10.563,23.546-23.546C111.217,399.322,100.655,388.759,87.671,388.759z M87.671,420.822
			c-4.696,0-8.517-3.82-8.517-8.517c0-4.696,3.82-8.517,8.517-8.517s8.517,3.82,8.517,8.517
			C96.188,417.001,92.367,420.822,87.671,420.822z"/>
	</g>
</g>
<g>
	<g>
		<path d="M408.297,388.759c-12.983,0-23.546,10.563-23.546,23.546c0,12.983,10.563,23.546,23.546,23.546
			c12.983,0,23.546-10.563,23.546-23.546C431.843,399.322,421.281,388.759,408.297,388.759z M408.297,420.822
			c-4.696,0-8.517-3.82-8.517-8.517c0-4.696,3.82-8.517,8.517-8.517c4.696,0,8.517,3.82,8.517,8.517
			C416.814,417.001,412.994,420.822,408.297,420.822z"/>
	</g>
</g>
<g>
	<g>
		<path d="M504.485,44.086h-40.078c-4.151,0-7.515,3.364-7.515,7.515s3.364,7.515,7.515,7.515h32.564v233.456H175.342V59.115
			h253.662c4.151,0,7.515-3.364,7.515-7.515s-3.364-7.515-7.515-7.515H167.828c-4.151,0-7.515,3.364-7.515,7.515v136.767H143.28
			v-16.532c0-8.564-6.967-15.53-15.53-15.53h-8.016c-8.564,0-15.53,6.967-15.53,15.53v16.532H79.656
			c-2.466,0-4.775,1.209-6.178,3.236L1.337,295.808C0.466,297.065,0,298.558,0,300.086v112.219c0,4.151,3.364,7.515,7.515,7.515
			h25.07c3.682,27.119,26.974,48.094,55.087,48.094c28.113,0,51.405-20.975,55.087-48.094h210.453
			c3.682,27.119,26.974,48.094,55.087,48.094c28.113,0,51.405-20.975,55.087-48.094h41.101c4.151,0,7.515-3.364,7.515-7.515V51.601
			C512,47.45,508.636,44.086,504.485,44.086z M119.233,171.836c0-0.276,0.225-0.501,0.501-0.501h8.016
			c0.276,0,0.501,0.225,0.501,0.501v16.532h-9.018V171.836z M87.671,452.885c-22.376,0-40.579-18.204-40.579-40.579
			c0-22.376,18.204-40.579,40.579-40.579c22.376,0,40.579,18.204,40.579,40.579C128.25,434.681,110.047,452.885,87.671,452.885z
			 M160.313,404.791h-17.555c-3.682-27.119-26.974-48.094-55.087-48.094s-51.405,20.975-55.087,48.094H15.029V302.434l68.564-99.036
			h76.72V404.791z M408.297,452.885c-22.376,0-40.579-18.204-40.579-40.579c0-22.376,18.204-40.579,40.579-40.579
			c22.376,0,40.579,18.204,40.579,40.579C448.877,434.681,430.673,452.885,408.297,452.885z M496.971,404.791h-33.587
			c-3.682-27.119-26.974-48.094-55.087-48.094c-28.113,0-51.405,20.975-55.087,48.094H175.342v-97.19h321.628V404.791z"/>
	</g>
</g>
<g>
	<g>
		<path d="M135.765,324.634h-16.031c-4.151,0-7.515,3.364-7.515,7.515s3.364,7.515,7.515,7.515h16.031
			c4.151,0,7.515-3.364,7.515-7.515S139.916,324.634,135.765,324.634z"/>
	</g>
</g>
<g>
	<g>
		<path d="M344.172,332.65H199.89c-4.151,0-7.515,3.364-7.515,7.515s3.364,7.515,7.515,7.515h144.282
			c4.151,0,7.515-3.364,7.515-7.515S348.323,332.65,344.172,332.65z"/>
	</g>
</g>
<g>
	<g>
		<path d="M320.125,364.712H199.89c-4.151,0-7.515,3.364-7.515,7.515s3.364,7.515,7.515,7.515h120.235
			c4.151,0,7.515-3.364,7.515-7.515S324.276,364.712,320.125,364.712z"/>
	</g>
</g>
<g>
	<g>
		<path d="M336.157,152.297c-33.977,0-61.62,27.643-61.62,61.62c0,31.056,23.035,49.597,61.62,49.597s61.62-18.541,61.62-49.597
			C397.777,179.94,370.134,152.297,336.157,152.297z M336.157,248.485c-17.4,0-46.591-4.491-46.591-34.568
			c0-25.691,20.9-46.591,46.591-46.591s46.591,20.9,46.591,46.591C382.748,243.995,353.557,248.485,336.157,248.485z"/>
	</g>
</g>
<g>
	<g>
		<path d="M306.098,92.18c-15.359,0-25.55,18.997-25.55,31.562c0,14.089,11.461,25.55,25.55,25.55s25.55-11.461,25.55-25.55
			C331.648,111.177,321.457,92.18,306.098,92.18z M306.098,134.262c-5.801,0-10.521-4.719-10.521-10.521
			c0-7.108,5.998-16.532,10.521-16.532s10.521,9.424,10.521,16.532C316.618,129.543,311.899,134.262,306.098,134.262z"/>
	</g>
</g>
<g>
	<g>
		<path d="M366.215,92.18c-15.359,0-25.55,18.997-25.55,31.562c0,14.089,11.461,25.55,25.55,25.55s25.55-11.461,25.55-25.55
			C391.765,111.177,381.574,92.18,366.215,92.18z M366.215,134.262c-5.801,0-10.521-4.719-10.521-10.521
			c0-7.108,5.998-16.532,10.521-16.532s10.521,9.424,10.521,16.532C376.736,129.543,372.017,134.262,366.215,134.262z"/>
	</g>
</g>
<g>
	<g>
		<path d="M414.309,128.251c-15.359,0-25.55,18.997-25.55,31.562c0,14.089,11.461,25.55,25.55,25.55s25.55-11.461,25.55-25.55
			C439.859,147.248,429.668,128.251,414.309,128.251z M414.309,170.333c-5.801,0-10.521-4.719-10.521-10.521
			c0-7.108,5.998-16.532,10.521-16.532s10.521,9.424,10.521,16.532C424.83,165.613,420.111,170.333,414.309,170.333z"/>
	</g>
</g>
<g>
	<g>
		<path d="M258.004,128.251c-15.359,0-25.55,18.997-25.55,31.562c0,14.089,11.461,25.55,25.55,25.55s25.55-11.461,25.55-25.55
			C283.554,147.248,273.363,128.251,258.004,128.251z M258.004,170.333c-5.801,0-10.521-4.719-10.521-10.521
			c0-7.108,5.998-16.532,10.521-16.532s10.521,9.424,10.521,16.532C268.524,165.613,263.805,170.333,258.004,170.333z"/>
	</g>
</g>
<g>
	<g>
		<path d="M352.188,200.391h-8.517v-8.517c0-4.151-3.364-7.515-7.515-7.515s-7.515,3.364-7.515,7.515v8.517h-8.517
			c-4.151,0-7.515,3.364-7.515,7.515s3.364,7.515,7.515,7.515h8.517v8.517c0,4.151,3.364,7.515,7.515,7.515s7.515-3.364,7.515-7.515
			v-8.517h8.517c4.151,0,7.515-3.364,7.515-7.515S356.339,200.391,352.188,200.391z"/>
	</g>
</g>
</symbol>

<symbol id="shampoo" viewBox="0 0 512.002 512.002">
<g>
	<g>
		<path d="M256.001,305.31c-26.877,0-48.742,21.937-48.742,48.9c0,26.964,21.866,48.901,48.742,48.901
			c26.877,0,48.743-21.938,48.743-48.901C304.745,327.246,282.878,305.31,256.001,305.31z M256.001,383.111
			c-15.849,0-28.742-12.965-28.742-28.901c0-15.935,12.894-28.9,28.742-28.9c15.849,0,28.743,12.965,28.743,28.9
			C284.745,370.147,271.851,383.111,256.001,383.111z"/>
	</g>
</g>
<g>
	<g>
		<path d="M256.001,229.583c-16.257,0-29.484,13.959-29.484,31.116c0,17.157,13.227,31.115,29.484,31.115
			c16.258,0,29.484-13.958,29.484-31.115S272.258,229.583,256.001,229.583z M256.001,271.814c-5.23,0-9.484-4.986-9.484-11.115
			c0-6.13,4.254-11.116,9.484-11.116c5.23,0,9.484,4.986,9.484,11.116C265.485,266.828,261.231,271.814,256.001,271.814z"/>
	</g>
</g>
<g>
	<g>
		<path d="M314.204,256.123c-16.257,0-29.483,13.959-29.483,31.116c-0.001,17.158,13.225,31.115,29.483,31.115
			c16.257,0,29.483-13.958,29.483-31.115C343.687,270.082,330.461,256.123,314.204,256.123z M314.204,298.354
			c-5.229,0-9.483-4.986-9.483-11.115c-0.001-6.13,4.254-11.116,9.483-11.116s9.483,4.986,9.483,11.116
			C323.687,293.368,319.433,298.354,314.204,298.354z"/>
	</g>
</g>
<g>
	<g>
		<path d="M197.8,255.978c-16.257,0-29.483,13.959-29.483,31.116s13.226,31.116,29.483,31.116s29.483-13.959,29.483-31.116
			C227.283,269.937,214.057,255.978,197.8,255.978z M197.799,298.21c-5.229,0-9.483-4.986-9.483-11.116s4.254-11.116,9.483-11.116
			s9.483,4.986,9.483,11.116C207.283,293.224,203.028,298.21,197.799,298.21z"/>
	</g>
</g>
<g>
	<g>
		<path d="M379.692,166.892c-4.556-7.118-9.702-15.097-15.054-23.396C350.2,121.108,333.15,94.67,323.43,78.447
			c11.554-3.925,19.893-14.869,19.893-27.732v-21.43C343.325,13.138,330.187,0,314.039,0H197.964
			c-16.148,0-29.285,13.138-29.285,29.285v21.43c0,12.863,8.339,23.808,19.893,27.732c-9.715,16.217-26.755,42.64-41.186,65.016
			c-5.359,8.311-10.513,16.302-15.075,23.428c-18.812,29.39-19.442,37.041-19.079,64.717c0.05,3.816,0.107,8.143,0.107,13.014
			v230.381c0,20.401,16.598,36.999,37,36.999h211.324c20.402,0,37-16.598,37-36.999V244.621c0-4.871,0.057-9.197,0.107-13.015
			C399.134,203.932,398.503,196.28,379.692,166.892z M188.679,29.285c0-5.12,4.165-9.285,9.285-9.285h116.074
			c5.121,0,9.286,4.165,9.286,9.285v21.43c0,5.12-4.165,9.286-9.286,9.286H197.964c-5.12,0-9.285-4.166-9.285-9.286V29.285z
			 M210.781,80.001h90.441c3.843,6.918,10.099,17.134,17.601,29.039c-11.125-0.354-18.653,2.02-25.163,4.078
			c-9.693,3.064-17.35,5.486-38.907-3.672c-21.148-8.985-35.204-2.368-46.497,2.946c-7.57,3.563-13.006,6.116-20.104,4.591
			C197.861,101.709,206.107,88.415,210.781,80.001z M378.772,231.343c-0.051,3.879-0.109,8.274-0.109,13.277v208.998H322.71
			c-5.523,0-10,4.478-10,10c0,5.522,4.477,10,10,10h55.953v1.383c0.001,9.374-7.625,17-16.999,17H150.339
			c-9.374,0-17-7.626-17-16.999V244.621c0-5.003-0.058-9.398-0.109-13.276c-0.3-22.897-0.361-27.653,13.008-49.063h60.447
			c5.523,0,10-4.477,10-10c0-5.522-4.477-10-10-10h-47.637c1.686-2.615,3.403-5.277,5.145-7.979
			c4.288-6.649,8.603-13.34,12.811-19.889c5.575,2.17,10.644,3.032,15.295,3.032c9.689,0,17.573-3.71,24.473-6.958
			c10.014-4.714,17.251-8.118,30.16-2.634c28.361,12.048,40.763,8.126,52.758,4.332c8.328-2.633,16.222-5.13,33.256-0.967
			c4.856,7.567,9.888,15.371,14.884,23.116c5.339,8.278,10.472,16.237,15.017,23.337
			C379.142,203.13,379.093,206.889,378.772,231.343z"/>
	</g>
</g>
<g>
	<g>
		<path d="M236.733,162.282h-0.324c-5.523,0-10,4.478-10,10c0,5.523,4.477,10,10,10h0.324c5.523,0,10-4.477,10-10
			C246.733,166.76,242.256,162.282,236.733,162.282z"/>
	</g>
</g>
<g>
	<g>
		<path d="M292.988,453.619h-0.324c-5.523,0-10,4.478-10,10c0,5.522,4.477,10,10,10h0.324c5.523,0,10-4.478,10-10
			C302.988,458.097,298.511,453.619,292.988,453.619z"/>
	</g>
</g>
</symbol>
<symbol id="sleeping" viewBox="0 0 512.006 512.006">
<g>
	<g>
		<path d="M508.681,221.516L308.835,21.81C294.77,7.753,276.003,0.013,255.991,0.013c-20.013,0-38.779,7.741-52.845,21.796
			L2.932,221.883c-2.861,2.86-3.719,7.161-2.171,10.899c1.547,3.737,5.194,6.175,9.239,6.175h25.253l44.55,264.696
			c0.009,0.056,0.024,0.108,0.035,0.163c0.03,0.162,0.065,0.322,0.104,0.481c0.036,0.15,0.073,0.3,0.115,0.447
			c0.043,0.151,0.09,0.302,0.141,0.45c0.053,0.157,0.109,0.31,0.169,0.463c0.053,0.132,0.104,0.262,0.162,0.391
			c0.074,0.169,0.156,0.333,0.239,0.497c0.055,0.107,0.108,0.214,0.167,0.319c0.102,0.182,0.211,0.358,0.324,0.532
			c0.053,0.082,0.103,0.166,0.158,0.247c0.135,0.197,0.279,0.387,0.428,0.573c0.043,0.053,0.082,0.109,0.126,0.162
			c0.395,0.475,0.831,0.912,1.304,1.304c0.078,0.065,0.161,0.123,0.241,0.186c0.157,0.123,0.314,0.245,0.479,0.357
			c0.112,0.078,0.229,0.148,0.345,0.221c0.141,0.089,0.281,0.177,0.426,0.259c0.127,0.072,0.258,0.137,0.388,0.203
			c0.144,0.073,0.287,0.144,0.435,0.21c0.132,0.059,0.266,0.115,0.401,0.168c0.157,0.062,0.315,0.12,0.476,0.174
			c0.129,0.044,0.257,0.086,0.388,0.125c0.185,0.054,0.372,0.1,0.56,0.144c0.112,0.025,0.223,0.054,0.336,0.076
			c0.238,0.046,0.48,0.081,0.724,0.11c0.069,0.008,0.137,0.021,0.207,0.028c0.321,0.032,0.646,0.051,0.975,0.051
			c0.012,0,0.023-0.001,0.035-0.001h332.608c0.012,0,0.023,0.001,0.035,0.001c0.328,0,0.652-0.02,0.975-0.051
			c0.07-0.007,0.138-0.02,0.207-0.028c0.243-0.029,0.485-0.064,0.724-0.11c0.113-0.022,0.224-0.051,0.335-0.076
			c0.189-0.044,0.376-0.09,0.561-0.144c0.131-0.039,0.26-0.081,0.389-0.125c0.159-0.054,0.317-0.111,0.474-0.173
			c0.136-0.054,0.271-0.11,0.404-0.169c0.146-0.065,0.288-0.136,0.43-0.207c0.132-0.067,0.264-0.133,0.392-0.206
			c0.144-0.081,0.282-0.168,0.421-0.255c0.117-0.074,0.235-0.145,0.35-0.224c0.161-0.111,0.315-0.231,0.47-0.351
			c0.083-0.065,0.17-0.125,0.251-0.193c0.472-0.392,0.907-0.828,1.302-1.301c0.045-0.055,0.086-0.113,0.13-0.169
			c0.146-0.185,0.29-0.372,0.423-0.566c0.057-0.082,0.107-0.168,0.162-0.251c0.111-0.173,0.22-0.347,0.32-0.528
			c0.06-0.106,0.113-0.215,0.169-0.323c0.083-0.162,0.163-0.326,0.237-0.493c0.059-0.129,0.111-0.261,0.163-0.393
			c0.06-0.152,0.116-0.305,0.169-0.461c0.051-0.149,0.098-0.3,0.141-0.452c0.043-0.147,0.08-0.296,0.115-0.446
			c0.037-0.159,0.074-0.319,0.104-0.481c0.01-0.055,0.025-0.107,0.035-0.163l44.549-264.697h25.253c0.009-0.001,0.013-0.001,0.02,0
			c5.523,0,9.999-4.477,9.999-10C512,226.002,510.719,223.346,508.681,221.516z M145.996,491.993H98.121l-13.464-79.997h61.339
			V491.993z M345.986,491.993H165.995v-89.996c0-49.624,40.372-89.996,89.996-89.996s89.995,40.372,89.995,89.996V491.993z
			 M413.861,491.993h-47.876v-79.997h61.338L413.861,491.993z M453.848,254.396h-57.492c-5.523,0-10,4.477-10,10s4.477,10,10,10
			h54.127l-19.793,117.603h-65.164c-5.068-55.983-52.255-99.996-109.534-99.996c-57.281,0-104.467,44.013-109.536,99.996H81.29
			L61.497,274.395h54.127c5.522,0,10-4.477,10-10s-4.478-10-10-10H58.132l-2.6-15.44h21.888c2.652,0,5.195-1.054,7.071-2.929
			L255.99,64.529l171.499,171.498c1.876,1.875,4.419,2.929,7.071,2.929h21.888L453.848,254.396z M438.702,218.957L263.062,43.317
			c-3.906-3.905-10.236-3.905-14.142,0l-175.64,175.64H34.153l183.129-183c10.289-10.282,24.035-15.943,38.708-15.943
			c14.672,0,28.419,5.662,38.707,15.943l183.13,183.001H438.702z"/>
	</g>
</g>
<g>
	<g>
		<path d="M305.99,157.037c-7.966,0-15.211,3.388-20.588,8.895c0.383-2.068,0.587-4.206,0.587-6.395
			c0-17.919-13.457-32.499-29.999-32.499c-16.54,0-29.998,14.579-29.998,32.499c0,2.189,0.204,4.328,0.587,6.396
			c-5.378-5.507-12.622-8.896-20.588-8.896c-16.541,0-29.999,14.579-29.999,32.499c0,17.92,13.457,32.5,29.999,32.5
			c1.995,0,3.944-0.217,5.832-0.622c-0.539,2.935-0.831,5.962-0.831,9.061c0,26.19,20.185,47.498,44.998,47.498
			c24.813,0,44.998-21.307,44.998-47.498c0-3.099-0.292-6.126-0.831-9.061c1.888,0.405,3.837,0.622,5.833,0.622
			c16.541,0,29.999-14.579,29.999-32.5C335.989,171.616,322.531,157.037,305.99,157.037z M205.991,202.036
			c-5.421,0-10-5.725-10-12.5s4.579-12.499,10-12.499c5.42,0,9.999,5.724,9.999,12.499S211.411,202.036,205.991,202.036z
			 M276.578,183.141c-0.291,1.57-0.478,3.181-0.55,4.823c-1.051-0.554-2.124-1.064-3.219-1.532
			C274.148,185.447,275.405,184.342,276.578,183.141z M255.99,147.036c5.421,0,10,5.724,10,12.499s-4.579,12.499-10,12.499
			c-5.42,0-9.999-5.724-9.999-12.499C245.991,152.761,250.57,147.036,255.99,147.036z M239.172,186.431
			c-1.096,0.468-2.169,0.978-3.22,1.532c-0.072-1.643-0.259-3.254-0.55-4.824C236.575,184.341,237.832,185.445,239.172,186.431z
			 M255.99,257.972c-13.784,0-24.999-12.335-24.999-27.499c0-15.162,11.215-27.499,24.999-27.499
			c13.784,0,24.999,12.336,24.999,27.499C280.989,245.637,269.774,257.972,255.99,257.972z M305.99,202.036
			c-5.421,0-10-5.725-10-12.5s4.579-12.499,10-12.499s10,5.724,10,12.499S311.411,202.036,305.99,202.036z"/>
	</g>
</g>
<g>
	<g>
		<path d="M145.671,254.396h-0.324c-5.523,0-10,4.477-10,10s4.477,10,10,10h0.324c5.522,0,10-4.477,10-10
			S151.193,254.396,145.671,254.396z"/>
	</g>
</g>
<g>
	<g>
		<path d="M366.635,254.396h-0.325c-5.522,0-10,4.477-10,10s4.478,10,10,10h0.325c5.523,0,10-4.477,10-10
			S372.157,254.396,366.635,254.396z"/>
	</g>
</g>
</symbol>
<symbol id="telephone" viewBox="0 0 74 74">
<g>
<path d="m62.337 69.086h-49.924a3.778 3.778 0 0 1 -3.774-3.774v-6.612a1 1 0 0 1 1-1h55.472a1 1 0 0 1 1 1v6.611a3.778 3.778 0 0 1 -3.774 3.775zm-51.698-9.386v5.611a1.776 1.776 0 0 0 1.774 1.774h49.924a1.776 1.776 0 0 0 1.774-1.774v-5.611z"/><path d="m31.417 28.006h-4.8a1 1 0 0 1 -1-1v-2.843a2.522 2.522 0 0 1 2.52-2.521h1.763a2.523 2.523 0 0 1 2.521 2.521v2.843a1 1 0 0 1 -1.004 1zm-3.8-2h2.8v-1.843a.521.521 0 0 0 -.521-.521h-1.754a.52.52 0 0 0 -.52.521z"/><path d="m48.128 28.006h-4.8a1 1 0 0 1 -1-1v-2.843a2.523 2.523 0 0 1 2.521-2.521h1.754a2.522 2.522 0 0 1 2.52 2.521v2.843a1 1 0 0 1 -.995 1zm-3.8-2h2.8v-1.843a.52.52 0 0 0 -.52-.521h-1.754a.521.521 0 0 0 -.521.521z"/><path d="m70.567 30.005a.981.981 0 0 1 -.233-.027l-15.082-3.6a1 1 0 1 1 .465-1.945l15.082 3.6a1 1 0 0 1 -.232 1.972z"/><path d="m6.844 34.671a3.351 3.351 0 0 1 -3.325-2.9l-1.061-7.846a9.337 9.337 0 0 1 5.108-9.593c10.656-5.318 22.091-6.432 29.809-6.432 7.74 0 19.2 1.115 29.818 6.429a9.339 9.339 0 0 1 5.1 9.589l-1.062 7.85a3.352 3.352 0 0 1 -4.1 2.812l-10.544-2.519a3.364 3.364 0 0 1 -2.555-3.614l.6-5.7a2.125 2.125 0 0 0 -1.667-2.289 71 71 0 0 0 -31.138 0 2.126 2.126 0 0 0 -1.666 2.289l.6 5.706a3.363 3.363 0 0 1 -2.558 3.614l-10.584 2.514a3.341 3.341 0 0 1 -.775.09zm30.531-24.771c-7.5 0-18.609 1.08-28.916 6.223a7.336 7.336 0 0 0 -4.018 7.536l1.059 7.841a1.352 1.352 0 0 0 1.655 1.135l10.588-2.521a1.357 1.357 0 0 0 1.032-1.458l-.6-5.706a4.127 4.127 0 0 1 3.218-4.45 73 73 0 0 1 32.008 0 4.126 4.126 0 0 1 3.222 4.452l-.6 5.7a1.356 1.356 0 0 0 1.031 1.458l10.541 2.518a1.353 1.353 0 0 0 1.653-1.128l1.061-7.85a7.334 7.334 0 0 0 -4.009-7.534c-10.274-5.139-21.4-6.216-28.925-6.216z"/><path d="m4.181 30.005a1 1 0 0 1 -.231-1.972l15.25-3.643a1 1 0 1 1 .465 1.945l-15.25 3.643a1 1 0 0 1 -.234.027z"/><path d="m65.111 59.7h-55.472a1 1 0 0 1 -1-1v-9.548a6.631 6.631 0 0 1 3.615-5.925 18.1 18.1 0 0 0 9.876-13.647 4.127 4.127 0 0 1 4.1-3.58h22.288a4.127 4.127 0 0 1 4.1 3.58 18.1 18.1 0 0 0 9.882 13.647 6.631 6.631 0 0 1 3.615 5.925v9.548a1 1 0 0 1 -1.004 1zm-54.472-2h53.472v-8.548a4.616 4.616 0 0 0 -2.5-4.133 20.1 20.1 0 0 1 -10.971-15.155 2.14 2.14 0 0 0 -2.122-1.864h-22.286a2.14 2.14 0 0 0 -2.122 1.864 20.1 20.1 0 0 1 -10.967 15.155 4.616 4.616 0 0 0 -2.5 4.133z"/><path d="m37.375 54.694a11.145 11.145 0 1 1 11.145-11.145 11.157 11.157 0 0 1 -11.145 11.145zm0-20.29a9.145 9.145 0 1 0 9.145 9.145 9.156 9.156 0 0 0 -9.145-9.149z"/><path d="m37.375 38.452a1 1 0 0 1 -1-1v-.62a1 1 0 1 1 2 0v.62a1 1 0 0 1 -1 1z"/><path d="m33.063 40.237a1 1 0 0 1 -.706-.292l-.439-.438a1 1 0 1 1 1.414-1.415l.438.438a1 1 0 0 1 -.707 1.707z"/><path d="m31.277 44.549h-.619a1 1 0 1 1 0-2h.619a1 1 0 0 1 0 2z"/><path d="m32.625 49.3a1 1 0 0 1 -.707-1.708l.439-.438a1 1 0 0 1 1.413 1.415l-.438.438a1 1 0 0 1 -.707.293z"/><path d="m37.375 51.267a1 1 0 0 1 -1-1v-.62a1 1 0 1 1 2 0v.62a1 1 0 0 1 -1 1z"/><path d="m42.125 49.3a1 1 0 0 1 -.707-.293l-.438-.438a1 1 0 1 1 1.413-1.415l.439.438a1 1 0 0 1 -.707 1.708z"/><path d="m44.092 44.549h-.619a1 1 0 0 1 0-2h.619a1 1 0 0 1 0 2z"/><path d="m41.687 40.237a1 1 0 0 1 -.707-1.707l.438-.438a1 1 0 1 1 1.414 1.415l-.439.438a1 1 0 0 1 -.706.292z"/>
</g>
</symbol>
<symbol id="toy" viewBox="0 0 500.421 500.421">
<g><path d="M454.803,50.967L406.325,2.489c-3.319-3.319-8.701-3.319-12.021,0c-3.32,3.319-3.319,8.701,0,12.02l48.478,48.477
	c16.955,16.955,16.955,44.543,0,61.499c-8.133,8.133-19.082,12.508-30.776,12.348c-11.711-0.171-22.73-4.833-31.025-13.128
	L317.36,60.084c-23.583-23.584-61.903-23.637-85.42-0.12c-23.583,23.583-23.583,61.956,0,85.539l22.811,22.811
	c-17.814-6.183-36.729-9.412-56.142-9.412c-45.611,0-88.493,17.762-120.745,50.015c-66.579,66.579-66.579,174.91,0,241.489
	c32.252,32.252,75.133,50.014,120.745,50.014c45.611,0,88.493-17.762,120.745-50.014c32.252-32.252,50.014-75.133,50.014-120.745
	c0-45.612-17.762-88.493-50.014-120.745c-0.758-0.758-1.528-1.501-2.298-2.243l-73.096-73.192
	c-16.954-16.955-16.954-44.542,0-61.498c16.89-16.889,44.423-16.835,61.379,0.12l63.621,63.621
	c11.44,11.44,26.639,17.87,42.798,18.105c16.323,0.225,31.634-5.914,43.044-17.325C478.386,112.923,478.386,74.55,454.803,50.967z
	 M282.492,200.752c-20.549,1.744-40.558,6.11-59.625,12.961c-0.4-0.204-0.815-0.387-1.256-0.529
	c-37.099-11.941-75.955-14.473-113.851-7.604c26.197-19.266,57.722-29.678,90.849-29.678
	C228.852,175.903,257.755,184.585,282.492,200.752z M108.876,301.361c-20.993-0.654-41.937,1.504-62.403,6.444
	c1.291-9.065,3.397-18.033,6.303-26.793c0.15-0.044,0.301-0.084,0.45-0.136c29.854-10.44,56.154-14.428,83.397-12.515
	c-0.215,0.213-0.435,0.419-0.648,0.633C125.897,279.072,116.854,289.907,108.876,301.361z M153.547,253.075
	c-0.021-0.003-0.041-0.009-0.061-0.012c-31.063-4.458-60.001-2.211-92.151,7.328c5.619-11.155,12.679-21.763,21.185-31.543
	c36.247-10.54,77.873-12.494,115.29-4.432C182.139,232.218,167.298,241.802,153.547,253.075z M44.975,325.739
	c17.419-4.681,35.243-7.181,53.164-7.465c-16.345,28.348-26.571,59.828-29.991,92.793C51.949,385.112,44.226,355.337,44.975,325.739
	z M83.902,432.047c0.969-57.065,23.633-110.571,64.094-151.032c40.769-40.768,97.503-63.467,155.136-64.11
	c1.419,1.318,2.824,2.656,4.201,4.033c5.856,5.856,11.171,12.107,15.942,18.683c-114.42,8.899-205.967,99.229-216.401,213.47
	c-5.958-4.447-11.637-9.353-16.989-14.705C87.817,436.318,85.828,434.201,83.902,432.047z M344.588,281.129
	c-51.441,6.717-96.881,27.751-131.855,61.152c-36.447,34.807-58.689,80.571-64.6,132.691c-8.64-2.994-16.994-6.753-24.973-11.26
	c5.678-113.292,97.102-203.501,210.512-207.663C338.059,264.073,341.715,272.459,344.588,281.129z M340.248,389.684
	c-12.939-28.395-31.462-54.023-54.293-75.177c11.354-4.877,23.316-8.863,35.807-11.882c11.766,14.99,21.513,31.491,29.034,49.118
	C348.919,364.881,345.366,377.611,340.248,389.684z M351.791,316.34c-3.58-5.973-7.42-11.784-11.516-17.413
	c2.9-0.461,5.827-0.865,8.775-1.225C350.337,303.818,351.254,310.039,351.791,316.34z M263.787,390.095
	c14.795,16.293,27.086,34.799,36.422,54.97c-24.614,21.729-55.08,34.819-87.676,37.727
	C217.298,444.266,236.016,410.34,263.787,390.095z M195.365,483.381c-10.425-0.214-20.679-1.455-30.643-3.685
	c5.005-49.289,26.268-92.151,59.165-124.064c9.929,6.674,19.24,14.111,27.866,22.226
	C220.685,401.488,200.05,440.063,195.365,483.381z M312.996,432.411c-17.504-35.382-43.581-65.728-76.011-88.408
	c9.979-8.104,20.814-15.311,32.41-21.524c26.951,23.451,47.92,53.454,60.704,86.981C325.165,417.557,319.453,425.24,312.996,432.411
	z"/></g>
</symbol>
<symbol id="vitamins" viewBox="0 0 512.002 512.002">
<g>
	<g>
		<path d="M329.941,74.505c-6.954-26.027-23.553-47.733-46.738-61.119C268.034,4.629,250.759,0,233.245,0
			c-35.948,0-69.373,19.214-87.23,50.144l-63.284,109.61c-0.006,0.01-0.013,0.019-0.019,0.029c-0.006,0.01-0.01,0.021-0.016,0.031
			L19.41,269.427C-8.278,317.385,8.214,378.928,56.172,406.616C71.338,415.372,88.611,420,106.123,420
			c32.786,0,63.559-15.872,82.316-42.457c0.172-0.244,0.333-0.495,0.482-0.752l131.037-226.202
			C333.335,127.495,336.88,100.476,329.941,74.505z M171.846,366.366C156.807,387.435,132.272,400,106.123,400
			c-14.006,0-27.821-3.702-39.951-10.705c-38.408-22.174-51.615-71.461-29.441-109.869l58.303-100.983l21.646,12.497
			c0.002,0.001,0.003,0.003,0.005,0.003c0.001,0.001,0.003,0.001,0.004,0.002l117.482,67.831L171.846,366.366z M302.651,140.562
			l-58.456,100.91l-108.851-62.847l27.976-48.456c2.761-4.783,1.123-10.899-3.66-13.66c-4.783-2.762-10.899-1.123-13.66,3.66
			l-27.976,48.456l-12.991-7.5l58.301-100.98C177.631,35.382,204.419,20,233.245,20c14.008,0,27.826,3.702,39.958,10.707
			c18.555,10.712,31.843,28.101,37.416,48.961C316.177,100.472,313.347,122.098,302.651,140.562z"/>
	</g>
</g>
<g>
	<g>
		<path d="M462.253,342.82c-24.418-6.977-56.62-10.819-90.673-10.819c-34.053,0-66.254,3.842-90.672,10.819
			c-29.012,8.289-43.737,19.959-43.771,34.686c0,0.018-0.003,0.034-0.003,0.051v88.888c0,14.778,14.704,26.473,43.702,34.758
			c24.372,6.964,56.599,10.799,90.742,10.799s66.37-3.835,90.742-10.799c28.999-8.285,43.702-19.98,43.702-34.758v-88.826
			c0.002-0.02,0.004-0.041,0.004-0.062C506.026,362.806,491.298,351.118,462.253,342.82z M286.403,362.051
			c22.682-6.48,52.932-10.049,85.178-10.049c32.247,0,62.497,3.569,85.179,10.049c24.111,6.889,29.237,14.288,29.266,15.495
			c0,0.004-0.001,0.008-0.001,0.012v0.017c-0.041,1.22-5.183,8.608-29.265,15.489c-22.682,6.48-52.932,10.049-85.179,10.049
			c-32.246,0-62.496-3.569-85.178-10.049c-24.179-6.908-29.267-14.331-29.267-15.506
			C257.136,376.383,262.224,368.959,286.403,362.051z M486.026,466.445c-0.002,1.426-5.197,8.67-29.198,15.528
			c-22.636,6.467-52.911,10.029-85.248,10.029c-32.338,0-62.612-3.561-85.248-10.029c-24.001-6.857-29.196-14.102-29.196-15.528
			V403.13c6.403,3.405,14.326,6.465,23.773,9.164c24.418,6.977,56.619,10.819,90.672,10.819c34.053,0,66.255-3.842,90.673-10.819
			c9.446-2.699,17.367-5.758,23.771-9.163v24.956c-14.348,7.1-32.246,12.85-52.205,16.731c-5.422,1.054-8.962,6.303-7.908,11.725
			c0.929,4.777,5.114,8.093,9.806,8.093c0.633,0,1.275-0.061,1.919-0.186c17.812-3.463,34.238-8.363,48.389-14.377V466.445z"/>
	</g>
</g>
<g>
	<g>
		<path d="M174.683,90.486c-4.783-2.761-10.898-1.123-13.66,3.66l-0.162,0.281c-2.761,4.783-1.123,10.898,3.66,13.66
			c1.575,0.909,3.294,1.341,4.991,1.341c3.456,0,6.817-1.793,8.669-5.001l0.162-0.281C181.105,99.363,179.466,93.248,174.683,90.486
			z"/>
	</g>
</g>
<g>
	<g>
		<path d="M415.713,457.961c-0.548-5.494-5.438-9.503-10.945-8.955l-0.225,0.022c-5.498,0.52-9.533,5.4-9.012,10.898
			c0.49,5.177,4.846,9.057,9.943,9.057c0.315,0,0.635-0.015,0.955-0.045l0.329-0.032
			C412.253,468.357,416.263,463.456,415.713,457.961z"/>
	</g>
</g>
</symbol>
<symbol id="credit-card" viewBox="0 0 512 512">
<path d="M56,416H456a40.045,40.045,0,0,0,40-40V136a40.045,40.045,0,0,0-40-40H56a40.045,40.045,0,0,0-40,40V376A40.045,40.045,0,0,0,56,416ZM32,136a24.028,24.028,0,0,1,24-24H456a24.028,24.028,0,0,1,24,24V376a24.028,24.028,0,0,1-24,24H56a24.028,24.028,0,0,1-24-24Z"/><path d="M88,224h32a24.028,24.028,0,0,0,24-24V168a24.028,24.028,0,0,0-24-24H88a24.028,24.028,0,0,0-24,24v32A24.028,24.028,0,0,0,88,224Zm0-64h32a8.009,8.009,0,0,1,8,8v8h-8a8,8,0,0,0,0,16h8v8a8.009,8.009,0,0,1-8,8H88a8.009,8.009,0,0,1-8-8v-8h8a8,8,0,0,0,0-16H80v-8A8.009,8.009,0,0,1,88,160Z"/><path d="M72,336H192a8,8,0,0,0,0-16H72a8,8,0,0,0,0,16Z"/><path d="M72,368l160,.006h0a8,8,0,0,0,0-16L72,352h0a8,8,0,0,0,0,16Z"/><path d="M384,384a39.736,39.736,0,0,0,19.99-5.376,40,40,0,1,0,0-69.248A39.992,39.992,0,1,0,384,384Zm64-40a23.989,23.989,0,0,1-31.221,22.884,39.87,39.87,0,0,0,0-45.767A23.986,23.986,0,0,1,448,344Zm-64-24a24,24,0,1,1-24,24A24.028,24.028,0,0,1,384,320Z"/><path d="M428.422,223.155a7.993,7.993,0,0,0,10.733-3.577C439.517,218.855,448,201.686,448,184s-8.483-34.855-8.845-35.578a8,8,0,0,0-14.316,7.144C424.911,155.711,432,170.16,432,184s-7.089,28.289-7.155,28.422A8,8,0,0,0,428.422,223.155Z"/><path d="M362.343,205.657a8,8,0,0,0,11.314,0C374.716,204.6,384,195,384,184s-9.284-20.6-10.343-21.657a8,8,0,0,0-11.336,11.292C364.611,175.962,368,180.866,368,184s-3.389,8.038-5.657,10.343A8,8,0,0,0,362.343,205.657Z"/><path d="M72,272h48a8,8,0,0,0,0-16H72a8,8,0,0,0,0,16Z"/><path d="M168,272h48a8,8,0,0,0,0-16H168a8,8,0,0,0,0,16Z"/><path d="M264,272h48a8,8,0,0,0,0-16H264a8,8,0,0,0,0,16Z"/><path d="M360,272h48a8,8,0,0,0,0-16H360a8,8,0,0,0,0,16Z"/><path d="M405.657,154.343a8,8,0,0,0-11.314,11.314c.056.057,5.657,6.2,5.657,18.343s-5.512,18.184-5.746,18.435l.089-.092h0a8,8,0,0,0,11.314,11.314h0C406.716,212.6,416,202.771,416,184S406.716,155.4,405.657,154.343Z"/>
</symbol>

<symbol id="left-arrow" viewBox="0 0 512 512">
<g>
		<path d="M492,236H68.442l70.164-69.824c7.829-7.792,7.859-20.455,0.067-28.284c-7.792-7.83-20.456-7.859-28.285-0.068
			l-104.504,104c-0.007,0.006-0.012,0.013-0.018,0.019c-7.809,7.792-7.834,20.496-0.002,28.314c0.007,0.006,0.012,0.013,0.018,0.019
			l104.504,104c7.828,7.79,20.492,7.763,28.285-0.068c7.792-7.829,7.762-20.492-0.067-28.284L68.442,276H492
			c11.046,0,20-8.954,20-20C512,244.954,503.046,236,492,236z"/>
	</g>
</symbol>
<symbol id="right-arrow" viewBox="0 0 512 512">
	<g>
		<path d="M506.134,241.843c-0.006-0.006-0.011-0.013-0.018-0.019l-104.504-104c-7.829-7.791-20.492-7.762-28.285,0.068
			c-7.792,7.829-7.762,20.492,0.067,28.284L443.558,236H20c-11.046,0-20,8.954-20,20c0,11.046,8.954,20,20,20h423.557
			l-70.162,69.824c-7.829,7.792-7.859,20.455-0.067,28.284c7.793,7.831,20.457,7.858,28.285,0.068l104.504-104
			c0.006-0.006,0.011-0.013,0.018-0.019C513.968,262.339,513.943,249.635,506.134,241.843z"/>
	</g>
</symbol>
</svg>